<?xml version="1.0" encoding="UTF-8"?><svg id="Layer_1" xmlns="http://www.w3.org/2000/svg" viewBox="0 0 494.64 82.78"><defs><style>.cls-1{fill:#c9483a;}</style></defs><polygon class="cls-1" points="79.03 0 64.43 0 64.43 43.81 58.04 43.81 57.94 43.81 57.94 0 43.34 0 43.34 43.81 36.51 43.81 36.14 43.81 36.14 0 21.53 0 21.53 43.81 14.6 43.81 14.6 0 0 0 0 58.42 79.03 58.42 79.03 0"/><path d="M122.8,0v37.61h40.51v20.81h-70.35V0h29.84Z"/><path d="M206.14,0v37.61h40.51v20.81h-70.35V0h29.84Z"/><path d="M255.9,0h29.99v24.03c0,6.52,2.75,13.42,15.23,13.42h.16c12.25,0,15.23-6.91,15.23-13.42V0h29.99v27.09c0,11.7-4.47,32.35-43.42,32.35h-3.93c-38.94,0-43.26-20.65-43.26-32.35V0Z"/><path d="M375.61,58.42L355.19,0h34.24l9.81,34.47L408.43,0h35.73l9.03,35.09L462.45,0h32.19l-20.96,58.42h-39.97l-8.72-32.43-8.95,32.43h-40.44Z"/><path d="M0,79.34h1.89c.13,1.07.56,1.95,2.35,1.95,1.17,0,2-.65,2-1.63s-.49-1.35-2.21-1.63c-2.53-.34-3.73-1.11-3.73-3.09,0-1.73,1.48-3.03,3.69-3.03s3.64,1.04,3.85,3.06h-1.81c-.19-1.11-.83-1.58-2.04-1.58s-1.82.58-1.82,1.39c0,.86.36,1.29,2.19,1.55,2.49.34,3.77,1.05,3.77,3.17,0,1.84-1.55,3.27-3.89,3.27-2.89,0-4.1-1.44-4.25-3.43Z"/><path d="M11.63,72.05h1.98v10.58h-1.98v-10.58Z"/><path d="M17.64,72.05h2.63l2.78,7.22,2.72-7.22h2.6v10.58h-1.97v-7.99l-3.15,7.99h-.64l-3.21-7.99v7.99h-1.78v-10.58Z"/><path d="M32.34,72.05h3.4c2.37,0,3.92,1.05,3.92,3.27v.06c0,2.23-1.61,3.23-3.88,3.23h-1.48v4.03h-1.97v-10.58ZM35.74,77.18c1.3,0,2-.64,2-1.81v-.06c0-1.26-.74-1.75-2-1.75h-1.44v3.61h1.44Z"/><path d="M42.88,72.05h1.97v9.01h4.51v1.57h-6.48v-10.58Z"/><path d="M52.61,72.05h1.98v10.58h-1.98v-10.58Z"/><path d="M58.62,72.05h6.56v1.57h-4.59v3.15h3.61v1.52h-3.61v4.34h-1.97v-10.58Z"/><path d="M70.98,78.04l-3.51-5.99h2.18l2.38,4.38,2.32-4.38h1.92l-3.32,6.01v4.57h-1.98v-4.59Z"/><path d="M79.33,72.05h1.98v10.58h-1.98v-10.58Z"/><path d="M85.34,72.05h2.35l4.46,7.65v-7.65h1.79v10.58h-2.04l-4.77-8.11v8.11h-1.79v-10.58Z"/><path d="M97.35,77.4v-.12c0-3.15,2.19-5.4,5.28-5.4,2.26,0,4.28,1.04,4.56,3.57h-1.97c-.24-1.41-1.18-2.01-2.56-2.01-2.07,0-3.27,1.54-3.27,3.86v.12c0,2.26,1.05,3.82,3.27,3.82,1.98,0,2.8-1.2,2.86-2.67h-2.66v-1.48h4.6v.98c0,2.93-1.83,4.71-4.83,4.71-3.39,0-5.28-2.25-5.28-5.37Z"/><path d="M115.99,72.05h1.98v10.58h-1.98v-10.58Z"/><path d="M124.11,73.6h-2.95v-1.55h7.87v1.55h-2.95v9.03h-1.98v-9.03Z"/><path d="M136.54,79.34h1.89c.13,1.07.56,1.95,2.35,1.95,1.17,0,2-.65,2-1.63s-.49-1.35-2.21-1.63c-2.53-.34-3.73-1.11-3.73-3.09,0-1.73,1.48-3.03,3.69-3.03s3.64,1.04,3.85,3.06h-1.81c-.19-1.11-.83-1.58-2.04-1.58s-1.82.58-1.82,1.39c0,.86.36,1.29,2.19,1.55,2.49.34,3.77,1.05,3.77,3.17,0,1.84-1.55,3.27-3.89,3.27-2.89,0-4.1-1.44-4.25-3.43Z"/><path d="M147.52,77.4v-.12c0-3.09,2.22-5.39,5.36-5.39s5.33,2.24,5.33,5.34v.12c0,3.09-2.12,5.42-5.33,5.42s-5.36-2.32-5.36-5.37ZM156.17,77.38v-.12c0-2.18-1.21-3.79-3.29-3.79s-3.3,1.52-3.3,3.8v.12c0,2.31,1.41,3.8,3.33,3.8s3.26-1.52,3.26-3.82Z"/><path d="M161.63,72.05h1.97v9.01h4.51v1.57h-6.48v-10.58Z"/><path d="M170.91,78.6v-6.56h1.98v6.41c0,1.94.62,2.74,2.19,2.74s2.29-.68,2.29-2.87v-6.28h1.98v6.44c0,2.77-1.5,4.29-4.29,4.29-2.65,0-4.16-1.45-4.16-4.17Z"/><path d="M185.34,73.6h-2.95v-1.55h7.87v1.55h-2.95v9.03h-1.98v-9.03Z"/><path d="M193.43,72.05h1.98v10.58h-1.98v-10.58Z"/><path d="M198.91,77.4v-.12c0-3.09,2.22-5.39,5.36-5.39s5.33,2.24,5.33,5.34v.12c0,3.09-2.12,5.42-5.33,5.42s-5.36-2.32-5.36-5.37ZM207.55,77.38v-.12c0-2.18-1.21-3.79-3.29-3.79s-3.3,1.52-3.3,3.8v.12c0,2.31,1.41,3.8,3.33,3.8s3.26-1.52,3.26-3.82Z"/><path d="M213.01,72.05h2.35l4.46,7.65v-7.65h1.79v10.58h-2.04l-4.77-8.11v8.11h-1.79v-10.58Z"/><path d="M224.91,79.34h1.89c.13,1.07.56,1.95,2.35,1.95,1.17,0,2-.65,2-1.63s-.49-1.35-2.21-1.63c-2.53-.34-3.73-1.11-3.73-3.09,0-1.73,1.48-3.03,3.69-3.03s3.64,1.04,3.85,3.06h-1.81c-.19-1.11-.83-1.58-2.04-1.58s-1.82.58-1.82,1.39c0,.86.36,1.29,2.19,1.55,2.49.34,3.77,1.05,3.77,3.17,0,1.84-1.55,3.27-3.89,3.27-2.89,0-4.1-1.44-4.25-3.43Z"/><path d="M235.87,81.58c0-.65.52-1.17,1.17-1.17s1.18.52,1.18,1.17-.52,1.15-1.18,1.15-1.17-.5-1.17-1.15Z"/><path d="M246.31,79.34h1.89c.13,1.07.56,1.95,2.35,1.95,1.17,0,2-.65,2-1.63s-.49-1.35-2.21-1.63c-2.53-.34-3.73-1.11-3.73-3.09,0-1.73,1.48-3.03,3.69-3.03s3.64,1.04,3.85,3.06h-1.81c-.19-1.11-.83-1.58-2.04-1.58s-1.82.58-1.82,1.39c0,.86.36,1.29,2.19,1.55,2.49.34,3.77,1.05,3.77,3.17,0,1.84-1.55,3.27-3.89,3.27-2.89,0-4.1-1.44-4.25-3.43Z"/><path d="M257.89,72.05h6.62v1.55h-4.65v2.9h3.73v1.48h-3.73v3.09h4.9v1.55h-6.87v-10.58Z"/><path d="M267.37,77.4v-.12c0-3.18,2.19-5.4,5.14-5.4,2.43,0,4.31,1.21,4.54,3.7h-2c-.22-1.41-1.01-2.13-2.53-2.13-1.87,0-3.08,1.45-3.08,3.82v.12c0,2.38,1.14,3.79,3.09,3.79,1.46,0,2.5-.74,2.71-2.24h1.92c-.31,2.55-2.12,3.83-4.63,3.83-3.32,0-5.17-2.12-5.17-5.37Z"/><path d="M280.31,78.6v-6.56h1.98v6.41c0,1.94.62,2.74,2.19,2.74s2.29-.68,2.29-2.87v-6.28h1.98v6.44c0,2.77-1.5,4.29-4.29,4.29-2.65,0-4.16-1.45-4.16-4.17Z"/><path d="M292.62,72.05h3.55c2.32,0,3.95.95,3.95,3.11v.06c0,1.66-1.04,2.5-2.35,2.84l2.98,4.57h-2.13l-2.77-4.28h-1.26v4.28h-1.97v-10.58ZM296.17,76.95c1.32,0,2.01-.56,2.01-1.69v-.06c0-1.21-.75-1.63-2.01-1.63h-1.58v3.37h1.58Z"/><path d="M303.9,72.05h1.98v10.58h-1.98v-10.58Z"/><path d="M309.91,72.05h2.35l4.46,7.65v-7.65h1.79v10.58h-2.04l-4.77-8.11v8.11h-1.79v-10.58Z"/><path d="M321.93,77.4v-.12c0-3.15,2.19-5.4,5.28-5.4,2.26,0,4.28,1.04,4.56,3.57h-1.97c-.24-1.41-1.18-2.01-2.56-2.01-2.07,0-3.27,1.54-3.27,3.86v.12c0,2.26,1.05,3.82,3.27,3.82,1.98,0,2.8-1.2,2.86-2.67h-2.66v-1.48h4.6v.98c0,2.93-1.83,4.71-4.83,4.71-3.39,0-5.28-2.25-5.28-5.37Z"/><path d="M343.05,78.04l-3.51-5.99h2.18l2.38,4.38,2.32-4.38h1.92l-3.32,6.01v4.57h-1.98v-4.59Z"/><path d="M350.06,77.4v-.12c0-3.09,2.22-5.39,5.36-5.39s5.33,2.24,5.33,5.34v.12c0,3.09-2.12,5.42-5.33,5.42s-5.36-2.32-5.36-5.37ZM358.7,77.38v-.12c0-2.18-1.21-3.79-3.29-3.79s-3.3,1.52-3.3,3.8v.12c0,2.31,1.41,3.8,3.33,3.8s3.26-1.52,3.26-3.82Z"/><path d="M364.08,78.6v-6.56h1.98v6.41c0,1.94.62,2.74,2.19,2.74s2.29-.68,2.29-2.87v-6.28h1.98v6.44c0,2.77-1.5,4.29-4.29,4.29-2.65,0-4.16-1.45-4.16-4.17Z"/><path d="M376.39,72.05h3.55c2.32,0,3.95.95,3.95,3.11v.06c0,1.66-1.04,2.5-2.35,2.84l2.98,4.57h-2.13l-2.77-4.28h-1.26v4.28h-1.97v-10.58ZM379.94,76.95c1.32,0,2.01-.56,2.01-1.69v-.06c0-1.21-.75-1.63-2.01-1.63h-1.58v3.37h1.58Z"/><path d="M392.73,72.05h3.79c2.18,0,3.46.83,3.46,2.75v.06c0,1.05-.47,1.88-1.67,2.25,1.44.31,2.12,1.1,2.12,2.5v.06c0,1.97-1.3,2.96-3.63,2.96h-4.07v-10.58ZM396.28,76.5c1.3,0,1.81-.47,1.81-1.55v-.06c0-1.01-.58-1.44-1.83-1.44h-1.6v3.05h1.63ZM396.56,81.22c1.32,0,1.92-.59,1.92-1.69v-.06c0-1.1-.61-1.64-2.06-1.64h-1.78v3.39h1.91Z"/><path d="M403.71,78.6v-6.56h1.98v6.41c0,1.94.62,2.74,2.19,2.74s2.29-.68,2.29-2.87v-6.28h1.98v6.44c0,2.77-1.5,4.29-4.29,4.29-2.65,0-4.16-1.45-4.16-4.17Z"/><path d="M415.36,79.34h1.89c.13,1.07.56,1.95,2.35,1.95,1.17,0,2-.65,2-1.63s-.49-1.35-2.21-1.63c-2.53-.34-3.73-1.11-3.73-3.09,0-1.73,1.48-3.03,3.69-3.03s3.64,1.04,3.85,3.06h-1.81c-.19-1.11-.83-1.58-2.04-1.58s-1.82.58-1.82,1.39c0,.86.36,1.29,2.19,1.55,2.49.34,3.77,1.05,3.77,3.17,0,1.84-1.55,3.27-3.89,3.27-2.89,0-4.1-1.44-4.25-3.43Z"/><path d="M426.99,72.05h1.98v10.58h-1.98v-10.58Z"/><path d="M433,72.05h2.35l4.46,7.65v-7.65h1.79v10.58h-2.04l-4.77-8.11v8.11h-1.79v-10.58Z"/><path d="M445.55,72.05h6.62v1.55h-4.65v2.9h3.73v1.48h-3.73v3.09h4.9v1.55h-6.87v-10.58Z"/><path d="M455.08,79.34h1.89c.13,1.07.56,1.95,2.35,1.95,1.17,0,2-.65,2-1.63s-.49-1.35-2.21-1.63c-2.53-.34-3.73-1.11-3.73-3.09,0-1.73,1.48-3.03,3.69-3.03s3.64,1.04,3.85,3.06h-1.81c-.19-1.11-.83-1.58-2.04-1.58s-1.82.58-1.82,1.39c0,.86.36,1.29,2.19,1.55,2.49.34,3.77,1.05,3.77,3.17,0,1.84-1.55,3.27-3.89,3.27-2.89,0-4.1-1.44-4.25-3.43Z"/><path d="M465.84,79.34h1.89c.13,1.07.56,1.95,2.35,1.95,1.17,0,2-.65,2-1.63s-.49-1.35-2.21-1.63c-2.53-.34-3.73-1.11-3.73-3.09,0-1.73,1.48-3.03,3.69-3.03s3.64,1.04,3.85,3.06h-1.81c-.19-1.11-.83-1.58-2.04-1.58s-1.82.58-1.82,1.39c0,.86.36,1.29,2.19,1.55,2.49.34,3.77,1.05,3.77,3.17,0,1.84-1.55,3.27-3.89,3.27-2.89,0-4.1-1.44-4.25-3.43Z"/><path d="M476.79,81.58c0-.65.52-1.17,1.17-1.17s1.18.52,1.18,1.17-.52,1.15-1.18,1.15-1.17-.5-1.17-1.15Z"/></svg>